<svg width="1001" height="388" viewBox="0 0 1001 388" fill="none" xmlns="http://www.w3.org/2000/svg">
<path d="M77.852 79.17C81.716 79.17 84.908 79.044 87.428 78.792V81.312C85.328 82.068 83.27 83.664 81.254 86.1C79.238 88.536 77.432 91.938 75.836 96.306L49.25 168.252C48.326 168.168 46.856 168.126 44.84 168.126C42.908 168.126 41.48 168.168 40.556 168.252L8.426 89.376C7.334 86.604 6.074 84.588 4.646 83.328C3.218 82.068 1.832 81.396 0.488 81.312V78.792C5.528 79.044 11.912 79.17 19.64 79.17C28.292 79.17 34.676 79.044 38.792 78.792V81.312C35.6 81.48 33.332 81.858 31.988 82.446C30.644 83.034 29.972 84.21 29.972 85.974C29.972 87.402 30.476 89.376 31.484 91.896L53.66 148.344L69.158 106.512C71.51 100.044 72.686 94.92 72.686 91.14C72.686 87.78 71.762 85.344 69.914 83.832C68.15 82.32 65.546 81.48 62.102 81.312V78.792C67.814 79.044 73.064 79.17 77.852 79.17ZM101.877 70.35C105.405 70.35 108.177 71.232 110.193 72.996C112.293 74.676 113.343 77.028 113.343 80.052C113.343 83.076 112.293 85.47 110.193 87.234C108.177 88.914 105.405 89.754 101.877 89.754C98.3487 89.754 95.5347 88.914 93.4347 87.234C91.4187 85.47 90.4107 83.076 90.4107 80.052C90.4107 77.028 91.4187 74.676 93.4347 72.996C95.5347 71.232 98.3487 70.35 101.877 70.35ZM111.705 156.282C111.705 159.726 112.293 162.12 113.469 163.464C114.729 164.724 116.829 165.354 119.769 165.354V168C111.369 167.664 105.783 167.496 103.011 167.496C100.407 167.496 94.5687 167.664 85.4967 168V165.354C88.5207 165.354 90.6207 164.724 91.7967 163.464C92.9727 162.12 93.5607 159.726 93.5607 156.282V116.592C93.5607 112.728 92.9727 109.914 91.7967 108.15C90.6207 106.386 88.5207 105.504 85.4967 105.504V102.858C88.1847 103.11 90.7887 103.236 93.3087 103.236C100.785 103.236 106.917 102.648 111.705 101.472V156.282ZM150.945 156.282C150.945 159.726 151.533 162.12 152.709 163.464C153.885 164.724 155.985 165.354 159.009 165.354V168C150.273 167.664 144.645 167.496 142.125 167.496C139.269 167.496 133.473 167.664 124.737 168V165.354C127.677 165.354 129.735 164.724 130.911 163.464C132.171 162.12 132.801 159.726 132.801 156.282V84.462C132.801 80.598 132.171 77.784 130.911 76.02C129.735 74.256 127.677 73.374 124.737 73.374V70.728C127.425 70.98 130.029 71.106 132.549 71.106C139.857 71.106 145.989 70.518 150.945 69.342V156.282ZM190.812 156.282C190.812 159.726 191.4 162.12 192.576 163.464C193.752 164.724 195.852 165.354 198.876 165.354V168C190.14 167.664 184.512 167.496 181.992 167.496C179.136 167.496 173.34 167.664 164.604 168V165.354C167.544 165.354 169.602 164.724 170.778 163.464C172.038 162.12 172.668 159.726 172.668 156.282V84.462C172.668 80.598 172.038 77.784 170.778 76.02C169.602 74.256 167.544 73.374 164.604 73.374V70.728C167.292 70.98 169.896 71.106 172.416 71.106C179.724 71.106 185.856 70.518 190.812 69.342V156.282ZM220.869 168.882C215.493 168.882 211.461 167.496 208.773 164.724C206.169 161.952 204.867 158.298 204.867 153.762C204.867 149.982 205.833 146.874 207.765 144.438C209.781 141.918 212.175 139.986 214.947 138.642C217.803 137.298 221.415 135.87 225.783 134.358C230.403 132.762 233.763 131.334 235.863 130.074C238.047 128.73 239.139 126.924 239.139 124.656V114.828C239.139 111.3 238.299 108.57 236.619 106.638C235.023 104.622 232.503 103.614 229.059 103.614C225.027 103.614 221.961 104.622 219.861 106.638C222.213 107.478 224.019 108.738 225.279 110.418C226.623 112.098 227.295 114.072 227.295 116.34C227.295 119.196 226.329 121.464 224.397 123.144C222.465 124.824 220.113 125.664 217.341 125.664C214.401 125.664 212.133 124.74 210.537 122.892C208.941 121.044 208.143 118.734 208.143 115.962C208.143 113.61 208.689 111.636 209.781 110.04C210.957 108.36 212.721 106.806 215.073 105.378C217.341 104.034 220.113 102.984 223.389 102.228C226.749 101.472 230.403 101.094 234.351 101.094C238.467 101.094 242.037 101.514 245.061 102.354C248.085 103.194 250.605 104.622 252.621 106.638C254.469 108.486 255.687 110.754 256.275 113.442C256.947 116.13 257.283 119.784 257.283 124.404V158.676C257.283 160.692 257.451 162.12 257.787 162.96C258.207 163.8 258.963 164.22 260.055 164.22C261.315 164.22 262.827 163.506 264.591 162.078L265.851 164.22C262.071 167.328 257.451 168.882 251.991 168.882C247.371 168.882 244.137 167.958 242.289 166.11C240.441 164.262 239.475 161.784 239.391 158.676C235.191 165.48 229.017 168.882 220.869 168.882ZM230.571 160.818C233.847 160.818 236.703 159.096 239.139 155.652V129.822C238.131 131.502 235.989 133.35 232.713 135.366C229.437 137.466 226.959 139.566 225.279 141.666C223.599 143.766 222.759 146.79 222.759 150.738C222.759 154.182 223.473 156.744 224.901 158.424C226.329 160.02 228.219 160.818 230.571 160.818ZM366.274 79.17C370.138 79.17 373.33 79.044 375.85 78.792V81.312C373.75 82.068 371.692 83.664 369.676 86.1C367.66 88.536 365.854 91.938 364.258 96.306L337.672 168.252C336.748 168.168 335.278 168.126 333.262 168.126C331.33 168.126 329.902 168.168 328.978 168.252L296.848 89.376C295.756 86.604 294.496 84.588 293.068 83.328C291.64 82.068 290.254 81.396 288.91 81.312V78.792C293.95 79.044 300.334 79.17 308.062 79.17C316.714 79.17 323.098 79.044 327.214 78.792V81.312C324.022 81.48 321.754 81.858 320.41 82.446C319.066 83.034 318.394 84.21 318.394 85.974C318.394 87.402 318.898 89.376 319.906 91.896L342.082 148.344L357.58 106.512C359.932 100.044 361.108 94.92 361.108 91.14C361.108 87.78 360.184 85.344 358.336 83.832C356.572 82.32 353.968 81.48 350.524 81.312V78.792C356.236 79.044 361.486 79.17 366.274 79.17ZM390.299 70.35C393.827 70.35 396.599 71.232 398.615 72.996C400.715 74.676 401.765 77.028 401.765 80.052C401.765 83.076 400.715 85.47 398.615 87.234C396.599 88.914 393.827 89.754 390.299 89.754C386.771 89.754 383.957 88.914 381.857 87.234C379.841 85.47 378.833 83.076 378.833 80.052C378.833 77.028 379.841 74.676 381.857 72.996C383.957 71.232 386.771 70.35 390.299 70.35ZM400.127 156.282C400.127 159.726 400.715 162.12 401.891 163.464C403.151 164.724 405.251 165.354 408.191 165.354V168C399.791 167.664 394.205 167.496 391.433 167.496C388.829 167.496 382.991 167.664 373.919 168V165.354C376.943 165.354 379.043 164.724 380.219 163.464C381.395 162.12 381.983 159.726 381.983 156.282V116.592C381.983 112.728 381.395 109.914 380.219 108.15C379.043 106.386 376.943 105.504 373.919 105.504V102.858C376.607 103.11 379.211 103.236 381.731 103.236C389.207 103.236 395.339 102.648 400.127 101.472V156.282ZM446.423 101.094C449.531 101.094 452.471 101.43 455.243 102.102C458.015 102.774 460.325 103.698 462.173 104.874C464.357 106.218 466.037 107.94 467.213 110.04C468.473 112.056 469.103 114.282 469.103 116.718C469.103 119.658 468.179 122.094 466.331 124.026C464.483 125.874 462.089 126.798 459.149 126.798C456.209 126.798 453.857 125.958 452.093 124.278C450.329 122.598 449.447 120.33 449.447 117.474C449.447 114.954 450.245 112.77 451.841 110.922C453.437 109.074 455.411 107.814 457.763 107.142C457.091 106.218 456.041 105.504 454.613 105C453.269 104.412 451.799 104.118 450.203 104.118C445.163 104.118 441.215 106.89 438.359 112.434C435.587 117.894 434.201 125.076 434.201 133.98C434.201 142.968 435.797 149.436 438.989 153.384C442.181 157.332 446.171 159.306 450.959 159.306C453.815 159.306 456.671 158.55 459.527 157.038C462.467 155.526 465.113 152.88 467.465 149.1L469.607 149.856C467.927 155.316 464.987 160.02 460.787 163.968C456.587 167.832 451.169 169.764 444.533 169.764C435.881 169.764 428.825 166.908 423.365 161.196C417.905 155.484 415.175 147 415.175 135.744C415.175 128.352 416.519 122.052 419.207 116.844C421.895 111.636 425.591 107.73 430.295 105.126C434.999 102.438 440.375 101.094 446.423 101.094ZM513.214 159.432C520.102 159.432 525.646 156.072 529.846 149.352L532.114 150.108C530.434 155.568 527.41 160.23 523.042 164.094C518.758 167.874 513.382 169.764 506.914 169.764C498.01 169.764 490.912 166.95 485.62 161.322C480.412 155.61 477.808 147.21 477.808 136.122C477.808 124.782 480.622 116.13 486.25 110.166C491.878 104.118 499.354 101.094 508.678 101.094C524.47 101.094 532.366 110.418 532.366 129.066H496.96C496.876 130.326 496.834 132.3 496.834 134.988C496.834 140.532 497.59 145.152 499.102 148.848C500.698 152.544 502.714 155.232 505.15 156.912C507.67 158.592 510.358 159.432 513.214 159.432ZM507.922 103.74C504.898 103.74 502.378 105.63 500.362 109.41C498.43 113.106 497.212 118.86 496.708 126.672H516.49C516.658 120.036 515.986 114.576 514.474 110.292C513.046 105.924 510.862 103.74 507.922 103.74ZM585.796 101.094C592.18 101.094 596.8 102.732 599.656 106.008C601.084 107.604 602.092 109.662 602.68 112.182C603.268 114.702 603.562 118.104 603.562 122.388V156.282C603.562 159.726 604.15 162.12 605.326 163.464C606.586 164.724 608.686 165.354 611.626 165.354V168C603.226 167.664 597.682 167.496 594.994 167.496C592.474 167.496 587.014 167.664 578.614 168V165.354C581.134 165.354 582.898 164.724 583.906 163.464C584.914 162.12 585.418 159.726 585.418 156.282V117.096C585.418 113.652 584.83 111.048 583.654 109.284C582.562 107.52 580.546 106.638 577.606 106.638C574.162 106.638 571.222 108.066 568.786 110.922C566.35 113.694 565.132 117.138 565.132 121.254V156.282C565.132 159.726 565.636 162.12 566.644 163.464C567.652 164.724 569.416 165.354 571.936 165.354V168C564.208 167.664 559 167.496 556.312 167.496C553.792 167.496 547.996 167.664 538.924 168V165.354C541.948 165.354 544.048 164.724 545.224 163.464C546.4 162.12 546.988 159.726 546.988 156.282V116.592C546.988 112.728 546.4 109.914 545.224 108.15C544.048 106.386 541.948 105.504 538.924 105.504V102.858C541.612 103.11 544.216 103.236 546.736 103.236C554.212 103.236 560.344 102.648 565.132 101.472V112.812C568.912 105 575.8 101.094 585.796 101.094ZM641.899 102.858H656.767V105.378H641.899V156.282C641.899 158.802 642.319 160.608 643.159 161.7C644.083 162.708 645.511 163.212 647.443 163.212C651.055 163.212 653.911 160.692 656.011 155.652L658.153 156.786C654.961 165.438 649.207 169.764 640.891 169.764C635.347 169.764 631.147 168.336 628.291 165.48C626.527 163.716 625.309 161.532 624.637 158.928C624.049 156.24 623.755 152.586 623.755 147.966V105.378H613.171V102.858H623.755V86.226C630.727 86.226 636.775 84.882 641.899 82.194V102.858ZM697.17 159.432C704.058 159.432 709.602 156.072 713.802 149.352L716.07 150.108C714.39 155.568 711.366 160.23 706.998 164.094C702.714 167.874 697.338 169.764 690.87 169.764C681.966 169.764 674.868 166.95 669.576 161.322C664.368 155.61 661.764 147.21 661.764 136.122C661.764 124.782 664.578 116.13 670.206 110.166C675.834 104.118 683.31 101.094 692.634 101.094C708.426 101.094 716.322 110.418 716.322 129.066H680.916C680.832 130.326 680.79 132.3 680.79 134.988C680.79 140.532 681.546 145.152 683.058 148.848C684.654 152.544 686.67 155.232 689.106 156.912C691.626 158.592 694.314 159.432 697.17 159.432ZM691.878 103.74C688.854 103.74 686.334 105.63 684.318 109.41C682.386 113.106 681.168 118.86 680.664 126.672H700.446C700.614 120.036 699.942 114.576 698.43 110.292C697.002 105.924 694.818 103.74 691.878 103.74Z" fill="white"/>
<rect x="239" y="199" width="496" height="5" fill="url(#paint0_linear)"/>
<path d="M437.016 225.328L443.396 211.406H445.699L438 227.367V237H435.996V227.367L428.314 211.406H430.67L437.016 225.328ZM447.141 226.523C447.141 223.781 447.762 221.613 449.004 220.02C450.246 218.426 451.939 217.629 454.084 217.629C456.24 217.629 457.934 218.414 459.164 219.984C460.406 221.555 461.033 223.717 461.045 226.471V228.492C461.045 231.281 460.418 233.455 459.164 235.014C457.922 236.572 456.24 237.352 454.119 237.352C451.998 237.352 450.316 236.59 449.074 235.066C447.832 233.543 447.188 231.445 447.141 228.773V226.523ZM449.109 228.492C449.109 230.684 449.549 232.406 450.428 233.66C451.318 234.914 452.549 235.541 454.119 235.541C455.725 235.541 456.949 234.938 457.793 233.73C458.648 232.523 459.082 230.795 459.094 228.545V226.523C459.094 224.332 458.648 222.609 457.758 221.355C456.867 220.09 455.643 219.457 454.084 219.457C452.572 219.457 451.371 220.072 450.48 221.303C449.59 222.533 449.133 224.227 449.109 226.383V228.492ZM475.758 234.732C474.68 236.479 473.01 237.352 470.748 237.352C469.025 237.352 467.725 236.754 466.846 235.559C465.967 234.363 465.521 232.605 465.51 230.285V217.98H467.443V230.232C467.443 231.955 467.748 233.262 468.357 234.152C468.967 235.043 469.846 235.488 470.994 235.488C473.455 235.488 475.031 234.293 475.723 231.902V217.98H477.691V237H475.793L475.758 234.732ZM490.348 219.809C489.879 219.727 489.469 219.686 489.117 219.686C488.039 219.686 487.131 220.055 486.393 220.793C485.666 221.531 485.15 222.557 484.846 223.869V237H482.895V217.98H484.811L484.846 220.828C485.771 218.695 487.225 217.629 489.205 217.629C489.721 217.629 490.113 217.705 490.383 217.857L490.348 219.809ZM504.059 237H502.09V210H504.059V237ZM519.668 234.732C518.59 236.479 516.92 237.352 514.658 237.352C512.936 237.352 511.635 236.754 510.756 235.559C509.877 234.363 509.432 232.605 509.42 230.285V217.98H511.354V230.232C511.354 231.955 511.658 233.262 512.268 234.152C512.877 235.043 513.756 235.488 514.904 235.488C517.365 235.488 518.941 234.293 519.633 231.902V217.98H521.602V237H519.703L519.668 234.732ZM531.902 225.662L536.068 217.98H538.371L532.975 227.314L538.582 237H536.297L531.92 229.002L527.525 237H525.24L530.83 227.314L525.451 217.98H527.736L531.902 225.662ZM552.469 234.732C551.391 236.479 549.721 237.352 547.459 237.352C545.736 237.352 544.436 236.754 543.557 235.559C542.678 234.363 542.232 232.605 542.221 230.285V217.98H544.154V230.232C544.154 231.955 544.459 233.262 545.068 234.152C545.678 235.043 546.557 235.488 547.705 235.488C550.166 235.488 551.742 234.293 552.434 231.902V217.98H554.402V237H552.504L552.469 234.732ZM567.059 219.809C566.59 219.727 566.18 219.686 565.828 219.686C564.75 219.686 563.842 220.055 563.104 220.793C562.377 221.531 561.861 222.557 561.557 223.869V237H559.605V217.98H561.521L561.557 220.828C562.482 218.695 563.936 217.629 565.916 217.629C566.432 217.629 566.824 217.705 567.094 217.857L567.059 219.809ZM575.883 233.783L580.418 217.98H582.51L575.812 240.041L575.443 241.096C574.541 243.486 573.158 244.682 571.295 244.682C570.85 244.682 570.381 244.6 569.889 244.436L569.871 242.643C570.141 242.725 570.439 242.766 570.768 242.766C571.611 242.766 572.303 242.514 572.842 242.01C573.381 241.506 573.826 240.691 574.178 239.566L574.986 236.877L569.01 217.98H571.154L575.883 233.783ZM603.498 232.324C603.498 231.504 603.158 230.789 602.479 230.18C601.799 229.559 600.645 228.885 599.016 228.158C597.398 227.42 596.268 226.811 595.623 226.33C594.979 225.838 594.504 225.305 594.199 224.73C593.895 224.156 593.742 223.477 593.742 222.691C593.742 221.227 594.27 220.02 595.324 219.07C596.379 218.109 597.744 217.629 599.42 217.629C601.225 217.629 602.666 218.139 603.744 219.158C604.822 220.178 605.361 221.525 605.361 223.201H603.41C603.41 222.123 603.041 221.232 602.303 220.529C601.564 219.814 600.604 219.457 599.42 219.457C598.271 219.457 597.357 219.75 596.678 220.336C596.01 220.922 595.676 221.684 595.676 222.621C595.676 223.383 595.934 224.004 596.449 224.484C596.965 224.965 598.078 225.615 599.789 226.436C601.559 227.209 602.777 227.848 603.445 228.352C604.113 228.855 604.617 229.418 604.957 230.039C605.297 230.648 605.467 231.375 605.467 232.219C605.467 233.789 604.922 235.037 603.832 235.963C602.742 236.889 601.307 237.352 599.525 237.352C597.639 237.352 596.109 236.836 594.938 235.805C593.777 234.773 593.197 233.443 593.197 231.814H595.166C595.225 232.998 595.617 233.918 596.344 234.574C597.082 235.219 598.143 235.541 599.525 235.541C600.721 235.541 601.682 235.248 602.408 234.662C603.135 234.076 603.498 233.297 603.498 232.324ZM612.99 213.129V217.98H616.242V219.738H612.99V232.377C612.99 233.42 613.143 234.199 613.447 234.715C613.764 235.219 614.285 235.471 615.012 235.471C615.328 235.471 615.797 235.412 616.418 235.295L616.471 237.053C616.025 237.252 615.387 237.352 614.555 237.352C612.27 237.352 611.098 235.781 611.039 232.641V219.738H608.104V217.98H611.039V213.129H612.99ZM630.551 237C630.375 236.391 630.258 235.512 630.199 234.363C629.613 235.312 628.857 236.051 627.932 236.578C627.018 237.094 626.021 237.352 624.943 237.352C623.303 237.352 622.025 236.889 621.111 235.963C620.197 235.037 619.74 233.719 619.74 232.008C619.74 230.145 620.373 228.668 621.639 227.578C622.916 226.488 624.674 225.938 626.912 225.926H630.182V223.271C630.182 221.912 629.842 220.939 629.162 220.354C628.494 219.756 627.51 219.457 626.209 219.457C625.002 219.457 624.012 219.809 623.238 220.512C622.465 221.215 622.078 222.123 622.078 223.236L620.127 223.219C620.127 221.66 620.713 220.342 621.885 219.264C623.057 218.174 624.527 217.629 626.297 217.629C628.207 217.629 629.654 218.109 630.639 219.07C631.623 220.031 632.115 221.432 632.115 223.271V232.605C632.115 234.469 632.285 235.863 632.625 236.789V237H630.551ZM625.189 235.471C626.338 235.471 627.352 235.172 628.23 234.574C629.121 233.977 629.771 233.18 630.182 232.184V227.561H627.088C625.307 227.584 623.965 227.982 623.062 228.756C622.16 229.518 621.709 230.549 621.709 231.85C621.709 234.264 622.869 235.471 625.189 235.471ZM642.223 233.783L646.758 217.98H648.85L642.152 240.041L641.783 241.096C640.881 243.486 639.498 244.682 637.635 244.682C637.189 244.682 636.721 244.6 636.229 244.436L636.211 242.643C636.48 242.725 636.779 242.766 637.107 242.766C637.951 242.766 638.643 242.514 639.182 242.01C639.721 241.506 640.166 240.691 640.518 239.566L641.326 236.877L635.35 217.98H637.494L642.223 233.783ZM662.508 237H660.539V217.98H662.508V237ZM660.258 212.496C660.258 212.098 660.369 211.758 660.592 211.477C660.814 211.195 661.131 211.055 661.541 211.055C661.951 211.055 662.268 211.195 662.49 211.477C662.725 211.758 662.842 212.098 662.842 212.496C662.842 212.895 662.725 213.234 662.49 213.516C662.268 213.785 661.951 213.92 661.541 213.92C661.131 213.92 660.814 213.785 660.592 213.516C660.369 213.234 660.258 212.895 660.258 212.496ZM669.785 217.98L669.838 221.004C670.4 219.973 671.115 219.152 671.982 218.543C672.861 217.934 673.857 217.629 674.971 217.629C678.287 217.629 679.986 219.838 680.068 224.256V237H678.135V224.467C678.123 222.768 677.824 221.514 677.238 220.705C676.652 219.896 675.732 219.492 674.479 219.492C673.459 219.492 672.539 219.879 671.719 220.652C670.91 221.414 670.295 222.463 669.873 223.799V237H667.922V217.98H669.785ZM696.275 213.129V217.98H699.527V219.738H696.275V232.377C696.275 233.42 696.428 234.199 696.732 234.715C697.049 235.219 697.57 235.471 698.297 235.471C698.613 235.471 699.082 235.412 699.703 235.295L699.756 237.053C699.311 237.252 698.672 237.352 697.84 237.352C695.555 237.352 694.383 235.781 694.324 232.641V219.738H691.389V217.98H694.324V213.129H696.275ZM705.732 220.969C706.295 219.949 707.004 219.141 707.859 218.543C708.727 217.934 709.717 217.629 710.83 217.629C714.146 217.629 715.846 219.838 715.928 224.256V237H713.994V224.467C713.982 222.768 713.684 221.514 713.098 220.705C712.512 219.896 711.592 219.492 710.338 219.492C709.318 219.492 708.398 219.879 707.578 220.652C706.77 221.414 706.154 222.463 705.732 223.799V237H703.781V210H705.732V220.969ZM727.389 237.352C725.15 237.352 723.398 236.619 722.133 235.154C720.867 233.689 720.223 231.604 720.199 228.896V226.576C720.199 223.787 720.809 221.602 722.027 220.02C723.246 218.426 724.922 217.629 727.055 217.629C729.117 217.629 730.688 218.303 731.766 219.65C732.855 220.998 733.412 223.061 733.436 225.838V227.666H722.133V228.738C722.133 230.918 722.596 232.6 723.521 233.783C724.459 234.967 725.777 235.559 727.477 235.559C729.352 235.559 730.869 234.873 732.029 233.502L733.049 234.803C731.807 236.502 729.92 237.352 727.389 237.352ZM727.055 219.457C725.52 219.457 724.336 220.002 723.504 221.092C722.684 222.17 722.232 223.752 722.15 225.838H731.484V225.328C731.391 221.414 729.914 219.457 727.055 219.457ZM407.836 259.98L407.889 262.828C409.072 260.695 410.771 259.629 412.986 259.629C415.436 259.629 417.018 260.795 417.732 263.127C418.33 261.967 419.098 261.094 420.035 260.508C420.984 259.922 422.016 259.629 423.129 259.629C426.551 259.629 428.303 261.832 428.385 266.238V279H426.434V266.361C426.41 264.721 426.105 263.502 425.52 262.705C424.934 261.896 423.973 261.492 422.637 261.492C421.43 261.516 420.41 261.984 419.578 262.898C418.746 263.812 418.271 264.961 418.154 266.344V279H416.186V266.414C416.186 264.75 415.875 263.514 415.254 262.705C414.645 261.896 413.689 261.492 412.389 261.492C411.322 261.492 410.396 261.861 409.611 262.6C408.838 263.338 408.275 264.393 407.924 265.764V279H405.973V259.98H407.836ZM432.762 268.523C432.762 265.781 433.383 263.613 434.625 262.02C435.867 260.426 437.561 259.629 439.705 259.629C441.861 259.629 443.555 260.414 444.785 261.984C446.027 263.555 446.654 265.717 446.666 268.471V270.492C446.666 273.281 446.039 275.455 444.785 277.014C443.543 278.572 441.861 279.352 439.74 279.352C437.619 279.352 435.938 278.59 434.695 277.066C433.453 275.543 432.809 273.445 432.762 270.773V268.523ZM434.73 270.492C434.73 272.684 435.17 274.406 436.049 275.66C436.939 276.914 438.17 277.541 439.74 277.541C441.346 277.541 442.57 276.938 443.414 275.73C444.27 274.523 444.703 272.795 444.715 270.545V268.523C444.715 266.332 444.27 264.609 443.379 263.355C442.488 262.09 441.264 261.457 439.705 261.457C438.193 261.457 436.992 262.072 436.102 263.303C435.211 264.533 434.754 266.227 434.73 268.383V270.492ZM461.379 276.732C460.301 278.479 458.631 279.352 456.369 279.352C454.646 279.352 453.346 278.754 452.467 277.559C451.588 276.363 451.143 274.605 451.131 272.285V259.98H453.064V272.232C453.064 273.955 453.369 275.262 453.979 276.152C454.588 277.043 455.467 277.488 456.615 277.488C459.076 277.488 460.652 276.293 461.344 273.902V259.98H463.312V279H461.414L461.379 276.732ZM470.379 259.98L470.432 263.004C470.994 261.973 471.709 261.152 472.576 260.543C473.455 259.934 474.451 259.629 475.564 259.629C478.881 259.629 480.58 261.838 480.662 266.256V279H478.729V266.467C478.717 264.768 478.418 263.514 477.832 262.705C477.246 261.896 476.326 261.492 475.072 261.492C474.053 261.492 473.133 261.879 472.312 262.652C471.504 263.414 470.889 264.463 470.467 265.799V279H468.516V259.98H470.379ZM488.783 255.129V259.98H492.035V261.738H488.783V274.377C488.783 275.42 488.936 276.199 489.24 276.715C489.557 277.219 490.078 277.471 490.805 277.471C491.121 277.471 491.59 277.412 492.211 277.295L492.264 279.053C491.818 279.252 491.18 279.352 490.348 279.352C488.062 279.352 486.891 277.781 486.832 274.641V261.738H483.896V259.98H486.832V255.129H488.783ZM506.344 279C506.168 278.391 506.051 277.512 505.992 276.363C505.406 277.312 504.65 278.051 503.725 278.578C502.811 279.094 501.814 279.352 500.736 279.352C499.096 279.352 497.818 278.889 496.904 277.963C495.99 277.037 495.533 275.719 495.533 274.008C495.533 272.145 496.166 270.668 497.432 269.578C498.709 268.488 500.467 267.938 502.705 267.926H505.975V265.271C505.975 263.912 505.635 262.939 504.955 262.354C504.287 261.756 503.303 261.457 502.002 261.457C500.795 261.457 499.805 261.809 499.031 262.512C498.258 263.215 497.871 264.123 497.871 265.236L495.92 265.219C495.92 263.66 496.506 262.342 497.678 261.264C498.85 260.174 500.32 259.629 502.09 259.629C504 259.629 505.447 260.109 506.432 261.07C507.416 262.031 507.908 263.432 507.908 265.271V274.605C507.908 276.469 508.078 277.863 508.418 278.789V279H506.344ZM500.982 277.471C502.131 277.471 503.145 277.172 504.023 276.574C504.914 275.977 505.564 275.18 505.975 274.184V269.561H502.881C501.1 269.584 499.758 269.982 498.855 270.756C497.953 271.518 497.502 272.549 497.502 273.85C497.502 276.264 498.662 277.471 500.982 277.471ZM515.414 279H513.445V259.98H515.414V279ZM513.164 254.496C513.164 254.098 513.275 253.758 513.498 253.477C513.721 253.195 514.037 253.055 514.447 253.055C514.857 253.055 515.174 253.195 515.396 253.477C515.631 253.758 515.748 254.098 515.748 254.496C515.748 254.895 515.631 255.234 515.396 255.516C515.174 255.785 514.857 255.92 514.447 255.92C514.037 255.92 513.721 255.785 513.498 255.516C513.275 255.234 513.164 254.895 513.164 254.496ZM522.691 259.98L522.744 263.004C523.307 261.973 524.021 261.152 524.889 260.543C525.768 259.934 526.764 259.629 527.877 259.629C531.193 259.629 532.893 261.838 532.975 266.256V279H531.041V266.467C531.029 264.768 530.73 263.514 530.145 262.705C529.559 261.896 528.639 261.492 527.385 261.492C526.365 261.492 525.445 261.879 524.625 262.652C523.816 263.414 523.201 264.463 522.779 265.799V279H520.828V259.98H522.691ZM547.67 274.324C547.67 273.504 547.33 272.789 546.65 272.18C545.971 271.559 544.816 270.885 543.188 270.158C541.57 269.42 540.439 268.811 539.795 268.33C539.15 267.838 538.676 267.305 538.371 266.73C538.066 266.156 537.914 265.477 537.914 264.691C537.914 263.227 538.441 262.02 539.496 261.07C540.551 260.109 541.916 259.629 543.592 259.629C545.396 259.629 546.838 260.139 547.916 261.158C548.994 262.178 549.533 263.525 549.533 265.201H547.582C547.582 264.123 547.213 263.232 546.475 262.529C545.736 261.814 544.775 261.457 543.592 261.457C542.443 261.457 541.529 261.75 540.85 262.336C540.182 262.922 539.848 263.684 539.848 264.621C539.848 265.383 540.105 266.004 540.621 266.484C541.137 266.965 542.25 267.615 543.961 268.436C545.73 269.209 546.949 269.848 547.617 270.352C548.285 270.855 548.789 271.418 549.129 272.039C549.469 272.648 549.639 273.375 549.639 274.219C549.639 275.789 549.094 277.037 548.004 277.963C546.914 278.889 545.479 279.352 543.697 279.352C541.811 279.352 540.281 278.836 539.109 277.805C537.949 276.773 537.369 275.443 537.369 273.814H539.338C539.396 274.998 539.789 275.918 540.516 276.574C541.254 277.219 542.314 277.541 543.697 277.541C544.893 277.541 545.854 277.248 546.58 276.662C547.307 276.076 547.67 275.297 547.67 274.324ZM561.574 268.523C561.574 265.781 562.195 263.613 563.438 262.02C564.68 260.426 566.373 259.629 568.518 259.629C570.674 259.629 572.367 260.414 573.598 261.984C574.84 263.555 575.467 265.717 575.479 268.471V270.492C575.479 273.281 574.852 275.455 573.598 277.014C572.355 278.572 570.674 279.352 568.553 279.352C566.432 279.352 564.75 278.59 563.508 277.066C562.266 275.543 561.621 273.445 561.574 270.773V268.523ZM563.543 270.492C563.543 272.684 563.982 274.406 564.861 275.66C565.752 276.914 566.982 277.541 568.553 277.541C570.158 277.541 571.383 276.938 572.227 275.73C573.082 274.523 573.516 272.795 573.527 270.545V268.523C573.527 266.332 573.082 264.609 572.191 263.355C571.301 262.09 570.076 261.457 568.518 261.457C567.006 261.457 565.805 262.072 564.914 263.303C564.023 264.533 563.566 266.227 563.543 268.383V270.492ZM581.279 279V261.738H578.66V259.98H581.279V257.484C581.303 255.598 581.736 254.15 582.58 253.143C583.436 252.135 584.613 251.631 586.113 251.631C586.793 251.631 587.42 251.73 587.994 251.93L587.854 253.723C587.338 253.594 586.811 253.529 586.271 253.529C585.322 253.529 584.578 253.887 584.039 254.602C583.512 255.305 583.248 256.318 583.248 257.643V259.98H586.975V261.738H583.248V279H581.279ZM614.678 271.02C614.49 273.891 613.717 276 612.357 277.348C610.998 278.684 609.117 279.352 606.715 279.352C604.242 279.352 602.291 278.42 600.861 276.557C599.432 274.682 598.711 272.139 598.699 268.928V263.373C598.699 260.15 599.426 257.625 600.879 255.797C602.344 253.969 604.342 253.055 606.873 253.055C609.264 253.055 611.115 253.74 612.428 255.111C613.74 256.482 614.49 258.586 614.678 261.422H612.639C612.451 259.102 611.9 257.443 610.986 256.447C610.084 255.451 608.713 254.953 606.873 254.953C604.939 254.953 603.434 255.674 602.355 257.115C601.277 258.557 600.738 260.648 600.738 263.391V268.875C600.738 271.594 601.26 273.709 602.303 275.221C603.346 276.732 604.816 277.488 606.715 277.488C608.707 277.488 610.148 276.99 611.039 275.994C611.93 274.998 612.463 273.34 612.639 271.02H614.678ZM629.32 279C629.145 278.391 629.027 277.512 628.969 276.363C628.383 277.312 627.627 278.051 626.701 278.578C625.787 279.094 624.791 279.352 623.713 279.352C622.072 279.352 620.795 278.889 619.881 277.963C618.967 277.037 618.51 275.719 618.51 274.008C618.51 272.145 619.143 270.668 620.408 269.578C621.686 268.488 623.443 267.938 625.682 267.926H628.951V265.271C628.951 263.912 628.611 262.939 627.932 262.354C627.264 261.756 626.279 261.457 624.979 261.457C623.771 261.457 622.781 261.809 622.008 262.512C621.234 263.215 620.848 264.123 620.848 265.236L618.896 265.219C618.896 263.66 619.482 262.342 620.654 261.264C621.826 260.174 623.297 259.629 625.066 259.629C626.977 259.629 628.424 260.109 629.408 261.07C630.393 262.031 630.885 263.432 630.885 265.271V274.605C630.885 276.469 631.055 277.863 631.395 278.789V279H629.32ZM623.959 277.471C625.107 277.471 626.121 277.172 627 276.574C627.891 275.977 628.541 275.18 628.951 274.184V269.561H625.857C624.076 269.584 622.734 269.982 621.832 270.756C620.93 271.518 620.479 272.549 620.479 273.85C620.479 276.264 621.639 277.471 623.959 277.471ZM639.146 255.129V259.98H642.398V261.738H639.146V274.377C639.146 275.42 639.299 276.199 639.604 276.715C639.92 277.219 640.441 277.471 641.168 277.471C641.484 277.471 641.953 277.412 642.574 277.295L642.627 279.053C642.182 279.252 641.543 279.352 640.711 279.352C638.426 279.352 637.254 277.781 637.195 274.641V261.738H634.26V259.98H637.195V255.129H639.146ZM656.707 279C656.531 278.391 656.414 277.512 656.355 276.363C655.77 277.312 655.014 278.051 654.088 278.578C653.174 279.094 652.178 279.352 651.1 279.352C649.459 279.352 648.182 278.889 647.268 277.963C646.354 277.037 645.896 275.719 645.896 274.008C645.896 272.145 646.529 270.668 647.795 269.578C649.072 268.488 650.83 267.938 653.068 267.926H656.338V265.271C656.338 263.912 655.998 262.939 655.318 262.354C654.65 261.756 653.666 261.457 652.365 261.457C651.158 261.457 650.168 261.809 649.395 262.512C648.621 263.215 648.234 264.123 648.234 265.236L646.283 265.219C646.283 263.66 646.869 262.342 648.041 261.264C649.213 260.174 650.684 259.629 652.453 259.629C654.363 259.629 655.811 260.109 656.795 261.07C657.779 262.031 658.271 263.432 658.271 265.271V274.605C658.271 276.469 658.441 277.863 658.781 278.789V279H656.707ZM651.346 277.471C652.494 277.471 653.508 277.172 654.387 276.574C655.277 275.977 655.928 275.18 656.338 274.184V269.561H653.244C651.463 269.584 650.121 269.982 649.219 270.756C648.316 271.518 647.865 272.549 647.865 273.85C647.865 276.264 649.025 277.471 651.346 277.471ZM665.777 279H663.809V252H665.777V279ZM681.387 276.732C680.309 278.479 678.639 279.352 676.377 279.352C674.654 279.352 673.354 278.754 672.475 277.559C671.596 276.363 671.15 274.605 671.139 272.285V259.98H673.072V272.232C673.072 273.955 673.377 275.262 673.986 276.152C674.596 277.043 675.475 277.488 676.623 277.488C679.084 277.488 680.66 276.293 681.352 273.902V259.98H683.32V279H681.422L681.387 276.732ZM690.387 259.98L690.439 263.004C691.002 261.973 691.717 261.152 692.584 260.543C693.463 259.934 694.459 259.629 695.572 259.629C698.889 259.629 700.588 261.838 700.67 266.256V279H698.736V266.467C698.725 264.768 698.426 263.514 697.84 262.705C697.254 261.896 696.334 261.492 695.08 261.492C694.061 261.492 693.141 261.879 692.32 262.652C691.512 263.414 690.896 264.463 690.475 265.799V279H688.523V259.98H690.387ZM710.918 275.783L715.453 259.98H717.545L710.848 282.041L710.479 283.096C709.576 285.486 708.193 286.682 706.33 286.682C705.885 286.682 705.416 286.6 704.924 286.436L704.906 284.643C705.176 284.725 705.475 284.766 705.803 284.766C706.646 284.766 707.338 284.514 707.877 284.01C708.416 283.506 708.861 282.691 709.213 281.566L710.021 278.877L704.045 259.98H706.189L710.918 275.783ZM730.711 279C730.535 278.391 730.418 277.512 730.359 276.363C729.773 277.312 729.018 278.051 728.092 278.578C727.178 279.094 726.182 279.352 725.104 279.352C723.463 279.352 722.186 278.889 721.271 277.963C720.357 277.037 719.9 275.719 719.9 274.008C719.9 272.145 720.533 270.668 721.799 269.578C723.076 268.488 724.834 267.938 727.072 267.926H730.342V265.271C730.342 263.912 730.002 262.939 729.322 262.354C728.654 261.756 727.67 261.457 726.369 261.457C725.162 261.457 724.172 261.809 723.398 262.512C722.625 263.215 722.238 264.123 722.238 265.236L720.287 265.219C720.287 263.66 720.873 262.342 722.045 261.264C723.217 260.174 724.688 259.629 726.457 259.629C728.367 259.629 729.814 260.109 730.799 261.07C731.783 262.031 732.275 263.432 732.275 265.271V274.605C732.275 276.469 732.445 277.863 732.785 278.789V279H730.711ZM725.35 277.471C726.498 277.471 727.512 277.172 728.391 276.574C729.281 275.977 729.932 275.18 730.342 274.184V269.561H727.248C725.467 269.584 724.125 269.982 723.223 270.756C722.32 271.518 721.869 272.549 721.869 273.85C721.869 276.264 723.029 277.471 725.35 277.471Z" fill="white"/>
<path d="M47.056 18.16C48.56 18.16 49.792 18.112 50.752 18.016V18.976C49.952 19.296 49.168 19.92 48.4 20.848C47.664 21.744 47.04 23.024 46.528 24.688L38.08 52.096C37.728 52.064 37.168 52.048 36.4 52.048C35.632 52.048 35.072 52.064 34.72 52.096L27.664 30.688L20.56 52.096C20.208 52.064 19.648 52.048 18.88 52.048C18.112 52.048 17.552 52.064 17.2 52.096L6.448 22.048C6.064 20.992 5.6 20.224 5.056 19.744C4.512 19.264 3.968 19.008 3.424 18.976V18.016C5.344 18.112 7.728 18.16 10.576 18.16C13.264 18.16 15.232 18.112 16.48 18.016V18.976C15.36 19.136 14.8 19.76 14.8 20.848C14.8 21.36 14.944 22.08 15.232 23.008L22.24 43.312L27.088 29.008L24.64 21.568C24.32 20.64 23.936 20 23.488 19.648C23.072 19.264 22.576 19.04 22 18.976V18.016C23.792 18.112 26.08 18.16 28.864 18.16C32 18.16 34.304 18.112 35.776 18.016V18.976C34.624 19.008 33.792 19.152 33.28 19.408C32.768 19.632 32.512 20.08 32.512 20.752C32.512 21.328 32.672 22.08 32.992 23.008L39.568 43.072L44.128 28.576C44.864 26.176 45.232 24.32 45.232 23.008C45.232 21.632 44.88 20.64 44.176 20.032C43.504 19.392 42.48 19.04 41.104 18.976V18.016C43.28 18.112 45.264 18.16 47.056 18.16ZM62.3421 48.736C64.9661 48.736 67.0781 47.456 68.6781 44.896L69.5421 45.184C68.9021 47.264 67.7501 49.04 66.0861 50.512C64.4541 51.952 62.4061 52.672 59.9421 52.672C56.5501 52.672 53.8461 51.6 51.8301 49.456C49.8461 47.28 48.8541 44.08 48.8541 39.856C48.8541 35.536 49.9261 32.24 52.0701 29.968C54.2141 27.664 57.0621 26.512 60.6141 26.512C66.6301 26.512 69.6381 30.064 69.6381 37.168H56.1501C56.1181 37.648 56.1021 38.4 56.1021 39.424C56.1021 41.536 56.3901 43.296 56.9661 44.704C57.5741 46.112 58.3421 47.136 59.2701 47.776C60.2301 48.416 61.2541 48.736 62.3421 48.736ZM60.3261 27.52C59.1741 27.52 58.2141 28.24 57.4461 29.68C56.7101 31.088 56.2461 33.28 56.0541 36.256H63.5901C63.6541 33.728 63.3981 31.648 62.8221 30.016C62.2781 28.352 61.4461 27.52 60.3261 27.52ZM82.2096 47.536C82.2096 48.848 82.4336 49.76 82.8816 50.272C83.3296 50.752 84.1296 50.992 85.2816 50.992V52C81.9536 51.872 79.8096 51.808 78.8496 51.808C77.7616 51.808 75.5536 51.872 72.2256 52V50.992C73.3456 50.992 74.1296 50.752 74.5776 50.272C75.0576 49.76 75.2976 48.848 75.2976 47.536V20.176C75.2976 18.704 75.0576 17.632 74.5776 16.96C74.1296 16.288 73.3456 15.952 72.2256 15.952V14.944C73.2496 15.04 74.2416 15.088 75.2016 15.088C77.9856 15.088 80.3216 14.864 82.2096 14.416V47.536ZM99.3351 26.512C100.519 26.512 101.639 26.64 102.695 26.896C103.751 27.152 104.631 27.504 105.335 27.952C106.167 28.464 106.807 29.12 107.255 29.92C107.735 30.688 107.975 31.536 107.975 32.464C107.975 33.584 107.623 34.512 106.919 35.248C106.215 35.952 105.303 36.304 104.183 36.304C103.063 36.304 102.167 35.984 101.495 35.344C100.823 34.704 100.487 33.84 100.487 32.752C100.487 31.792 100.791 30.96 101.399 30.256C102.007 29.552 102.759 29.072 103.655 28.816C103.399 28.464 102.999 28.192 102.455 28C101.943 27.776 101.383 27.664 100.775 27.664C98.8551 27.664 97.3511 28.72 96.2631 30.832C95.2071 32.912 94.6791 35.648 94.6791 39.04C94.6791 42.464 95.2871 44.928 96.5031 46.432C97.7191 47.936 99.2391 48.688 101.063 48.688C102.151 48.688 103.239 48.4 104.327 47.824C105.447 47.248 106.455 46.24 107.351 44.8L108.167 45.088C107.527 47.168 106.407 48.96 104.807 50.464C103.207 51.936 101.143 52.672 98.6151 52.672C95.3191 52.672 92.6311 51.584 90.5511 49.408C88.4711 47.232 87.4311 44 87.4311 39.712C87.4311 36.896 87.9431 34.496 88.9671 32.512C89.9911 30.528 91.3991 29.04 93.1911 28.048C94.9831 27.024 97.0311 26.512 99.3351 26.512ZM123.052 26.512C126.732 26.512 129.612 27.568 131.692 29.68C133.772 31.76 134.812 35.072 134.812 39.616C134.812 44.16 133.772 47.472 131.692 49.552C129.612 51.632 126.732 52.672 123.052 52.672C119.404 52.672 116.524 51.632 114.412 49.552C112.332 47.472 111.292 44.16 111.292 39.616C111.292 35.072 112.332 31.76 114.412 29.68C116.524 27.568 119.404 26.512 123.052 26.512ZM123.052 27.472C121.676 27.472 120.572 28.48 119.74 30.496C118.94 32.48 118.54 35.52 118.54 39.616C118.54 43.712 118.94 46.752 119.74 48.736C120.572 50.72 121.676 51.712 123.052 51.712C124.46 51.712 125.564 50.736 126.364 48.784C127.164 46.8 127.564 43.744 127.564 39.616C127.564 35.488 127.148 32.432 126.316 30.448C125.516 28.464 124.428 27.472 123.052 27.472ZM176.4 47.536C176.4 48.848 176.624 49.76 177.072 50.272C177.552 50.752 178.352 50.992 179.472 50.992V52C176.272 51.872 174.16 51.808 173.136 51.808C172.24 51.808 170.256 51.872 167.184 52V50.992C168.048 50.992 168.64 50.752 168.96 50.272C169.312 49.792 169.488 48.88 169.488 47.536V32.608C169.488 31.264 169.28 30.272 168.864 29.632C168.48 28.96 167.728 28.624 166.608 28.624C165.424 28.624 164.384 29.12 163.488 30.112C162.624 31.104 162.112 32.32 161.952 33.76V34.624V47.536C161.952 48.848 162.144 49.76 162.528 50.272C162.944 50.752 163.68 50.992 164.736 50.992V52C161.664 51.872 159.648 51.808 158.688 51.808C157.792 51.808 155.808 51.872 152.736 52V50.992C153.6 50.992 154.192 50.752 154.512 50.272C154.864 49.76 155.04 48.848 155.04 47.536V32.608C155.04 31.264 154.864 30.272 154.512 29.632C154.16 28.96 153.472 28.624 152.448 28.624C151.168 28.624 150.064 29.168 149.136 30.256C148.24 31.312 147.792 32.624 147.792 34.192V47.536C147.792 48.848 147.952 49.76 148.272 50.272C148.624 50.752 149.232 50.992 150.096 50.992V52C147.28 51.872 145.392 51.808 144.432 51.808C143.472 51.808 141.264 51.872 137.808 52V50.992C138.96 50.992 139.76 50.752 140.208 50.272C140.656 49.76 140.88 48.848 140.88 47.536V32.416C140.88 30.944 140.656 29.872 140.208 29.2C139.76 28.528 138.96 28.192 137.808 28.192V27.184C138.832 27.28 139.824 27.328 140.784 27.328C143.632 27.328 145.968 27.104 147.792 26.656V30.976C149.2 28 151.68 26.512 155.232 26.512C157.664 26.512 159.424 27.136 160.512 28.384C161.12 29.024 161.52 29.984 161.712 31.264C162.544 29.536 163.632 28.32 164.976 27.616C166.32 26.88 167.888 26.512 169.68 26.512C172.112 26.512 173.872 27.136 174.96 28.384C175.472 28.96 175.84 29.744 176.064 30.736C176.288 31.728 176.4 33.024 176.4 34.624V47.536ZM195.373 48.736C197.997 48.736 200.109 47.456 201.709 44.896L202.573 45.184C201.933 47.264 200.781 49.04 199.117 50.512C197.485 51.952 195.437 52.672 192.973 52.672C189.581 52.672 186.877 51.6 184.861 49.456C182.877 47.28 181.885 44.08 181.885 39.856C181.885 35.536 182.957 32.24 185.101 29.968C187.245 27.664 190.093 26.512 193.645 26.512C199.661 26.512 202.669 30.064 202.669 37.168H189.181C189.149 37.648 189.133 38.4 189.133 39.424C189.133 41.536 189.421 43.296 189.997 44.704C190.605 46.112 191.373 47.136 192.301 47.776C193.261 48.416 194.285 48.736 195.373 48.736ZM193.357 27.52C192.205 27.52 191.245 28.24 190.477 29.68C189.741 31.088 189.277 33.28 189.085 36.256H196.621C196.685 33.728 196.429 31.648 195.853 30.016C195.309 28.352 194.477 27.52 193.357 27.52ZM225.834 27.184H231.498V28.144H225.834V47.536C225.834 48.496 225.994 49.184 226.314 49.6C226.666 49.984 227.21 50.176 227.946 50.176C229.322 50.176 230.41 49.216 231.21 47.296L232.026 47.728C230.81 51.024 228.618 52.672 225.45 52.672C223.338 52.672 221.738 52.128 220.65 51.04C219.978 50.368 219.514 49.536 219.258 48.544C219.034 47.52 218.922 46.128 218.922 44.368V28.144H214.889V27.184H218.922V20.848C221.578 20.848 223.882 20.336 225.834 19.312V27.184ZM245.161 26.512C248.841 26.512 251.721 27.568 253.801 29.68C255.881 31.76 256.921 35.072 256.921 39.616C256.921 44.16 255.881 47.472 253.801 49.552C251.721 51.632 248.841 52.672 245.161 52.672C241.513 52.672 238.633 51.632 236.521 49.552C234.441 47.472 233.401 44.16 233.401 39.616C233.401 35.072 234.441 31.76 236.521 29.68C238.633 27.568 241.513 26.512 245.161 26.512ZM245.161 27.472C243.785 27.472 242.681 28.48 241.849 30.496C241.049 32.48 240.649 35.52 240.649 39.616C240.649 43.712 241.049 46.752 241.849 48.736C242.681 50.72 243.785 51.712 245.161 51.712C246.569 51.712 247.673 50.736 248.473 48.784C249.273 46.8 249.673 43.744 249.673 39.616C249.673 35.488 249.257 32.432 248.425 30.448C247.625 28.464 246.537 27.472 245.161 27.472Z" fill="white"/>
<defs>
<linearGradient id="paint0_linear" x1="487" y1="199" x2="487" y2="204" gradientUnits="userSpaceOnUse">
<stop stop-color="#DCB426"/>
<stop offset="1" stop-color="#F3D07A"/>
</linearGradient>
</defs>
</svg>
